<svg width="100%" viewBox="0 0 40 40" fill="#3392ff" xmlns="http://www.w3.org/2000/svg">
<path fill-rule="evenodd" clip-rule="evenodd" d="M36.6666 10.0003C36.6666 8.15938 35.1742 6.66699 33.3333 6.66699H6.66659C4.82564 6.66699 3.33325 8.15938 3.33325 10.0003V30.0003C3.33325 31.8413 4.82564 33.3337 6.66659 33.3337H33.3333C35.1742 33.3337 36.6666 31.8413 36.6666 30.0003V10.0003ZM16.6666 27.5003C16.6666 27.9606 16.2935 28.3337 15.8333 28.3337H10.8333C10.373 28.3337 9.99992 27.9606 9.99992 27.5003V25.8337C9.99992 25.3734 10.373 25.0003 10.8333 25.0003H15.8333C16.2935 25.0003 16.6666 25.3734 16.6666 25.8337V27.5003ZM32.4999 20.0003C32.9602 20.0003 33.3333 19.6272 33.3333 19.167V15.8337C33.3333 15.3734 32.9602 15.0003 32.4999 15.0003H7.49992C7.03968 15.0003 6.66659 15.3734 6.66659 15.8337V19.167C6.66659 19.6272 7.03968 20.0003 7.49992 20.0003H32.4999Z" fill="#3392ff"></path>
</svg>