<svg width="100%" viewBox="0 0 104 104" fill="none" xmlns="http://www.w3.org/2000/svg">
<rect width="104" height="104" rx="26" fill="black"></rect>
<path fill-rule="evenodd" clip-rule="evenodd" d="M40.5244 30.6099C39.8332 33.3247 40.0776 35.4843 41.274 37.2132C43.4254 40.3198 48.6042 42.1184 58.5877 43.2241C67.2649 44.1857 71.7475 48.33 73.9815 51.639C77.3812 56.6769 77.509 62.3397 76.4956 65.9578C76.5151 65.9206 78.8219 61.5351 79.5682 55.3575C80.0053 51.7474 79.824 48.2507 79.0324 44.9676C78.0433 40.8622 76.0893 37.0805 73.2255 33.7246C70.3488 30.3541 66.9977 27.7769 63.2679 26.0657C60.0123 24.5731 56.5059 23.7831 53.1257 23.7831C46.7312 23.7847 41.5492 26.5919 40.5244 30.6099ZM39.2747 82.1158C35.383 80.4694 31.8879 78.1123 28.8849 75.1109C25.8835 72.1096 23.5264 68.6144 21.8816 64.7211C20.177 60.6917 19.3125 56.4114 19.3125 51.9984C19.3125 47.5854 20.177 43.3051 21.8816 39.2757C23.5264 35.384 25.8835 31.8888 28.8849 28.8858C31.8879 25.8845 35.383 23.5274 39.2747 21.8826C43.3041 20.178 47.5844 19.3135 51.9974 19.3135C56.4104 19.3135 60.6907 20.178 64.7201 21.8826C68.6134 23.5274 72.1086 25.8845 75.1099 28.8858C78.1113 31.8888 80.4684 35.384 82.1148 39.2757C83.8195 43.3051 84.6839 47.5854 84.6839 51.9984C84.6839 56.4114 83.8195 60.6917 82.1148 64.7211C80.4684 68.6128 78.1113 72.1096 75.1099 75.1109C72.1086 78.1123 68.6118 80.4694 64.7201 82.1158C60.6907 83.8204 56.4104 84.6849 51.9974 84.6849C47.5844 84.6849 43.3041 83.8204 39.2747 82.1158Z" fill="white"></path>
</svg>