<svg width="212" height="70" viewBox="0 0 212 70" fill="none" xmlns="http://www.w3.org/2000/svg">
<rect width="212" height="70" rx="11.025" fill="white"/>
<path d="M19.6312 56.0904L34.5303 40.6135L19.6437 25.1643C19.2461 25.4048 19 25.9617 19 26.6907V54.5788C19.0053 55.3078 19.2425 55.824 19.6312 56.0904Z" fill="black"/>
<path d="M35.0645 40.1865L39.5025 35.5758L21.4296 25.2812C21.1253 25.0976 20.7796 25.0005 20.4275 25L35.0627 40.1846L35.0645 40.1865Z" fill="black"/>
<path d="M35.064 41.0426L20.3825 56.2938C20.751 56.3002 21.1139 56.2003 21.4309 56.0052L39.5394 45.6829L35.064 41.0426Z" fill="black"/>
<path d="M46.0481 39.311L40.0339 35.8788L35.4747 40.6154L40.0678 45.3815L46.0463 41.9586C47.3176 41.2315 47.3176 40.0344 46.0481 39.311Z" fill="black"/>
<path d="M98.8255 36.4609C95.1131 36.4609 92.0804 39.2947 92.0804 43.2045C92.0804 47.0826 95.1131 49.946 98.8255 49.946C102.546 49.946 105.578 47.0826 105.578 43.2045C105.578 39.2947 102.546 36.4609 98.8255 36.4609ZM98.8255 47.2906C96.7885 47.2906 95.036 45.6042 95.036 43.2045C95.036 40.773 96.7885 39.1163 98.8255 39.1163C100.862 39.1163 102.623 40.773 102.623 43.2045C102.623 45.6042 100.862 47.2906 98.8255 47.2906ZM84.1084 36.4609C80.3881 36.4609 77.3633 39.2947 77.3633 43.2045C77.3633 47.0826 80.3881 49.946 84.1084 49.946C87.8267 49.946 90.8534 47.0826 90.8534 43.2045C90.8534 39.2947 87.8267 36.4609 84.1084 36.4609ZM84.1084 47.2906C82.0695 47.2906 80.3111 45.6042 80.3111 43.2045C80.3111 40.773 82.0695 39.1163 84.1084 39.1163C86.1454 39.1163 87.8978 40.773 87.8978 43.2045C87.8978 45.6042 86.1454 47.2906 84.1084 47.2906ZM66.5958 38.5278V41.3932H73.4179C73.2182 42.9944 72.6848 44.1715 71.8669 44.9919C70.8712 45.9827 69.3202 47.0826 66.5958 47.0826C62.3974 47.0826 59.1098 43.684 59.1098 39.473C59.1098 35.262 62.3974 31.8635 66.5958 31.8635C68.8658 31.8635 70.5175 32.7532 71.7365 33.9065L73.7498 31.8872C72.0447 30.2544 69.7766 29 66.5958 29C60.8385 29 56 33.6985 56 39.473C56 45.2476 60.8385 49.946 66.5958 49.946C69.7075 49.946 72.0447 48.9235 73.8821 47.0053C75.765 45.1167 76.3517 42.4613 76.3517 40.3172C76.3517 39.6514 76.2981 39.039 76.1974 38.5278H66.5958ZM138.207 40.7492C137.652 39.2411 135.939 36.4609 132.45 36.4609C128.993 36.4609 126.114 39.1936 126.114 43.2045C126.114 46.9815 128.963 49.946 132.782 49.946C135.87 49.946 137.652 48.0576 138.385 46.9577L136.093 45.4259C135.329 46.5475 134.287 47.2906 132.782 47.2906C131.286 47.2906 130.213 46.603 129.526 45.2476L138.517 41.5161L138.207 40.7492ZM129.04 42.9944C128.963 40.3945 131.053 39.0628 132.551 39.0628C133.724 39.0628 134.72 39.6512 135.052 40.4936L129.04 42.9944ZM121.732 49.5358H124.687V29.7193H121.732V49.5358ZM116.891 37.963H116.792C116.129 37.1743 114.862 36.4609 113.258 36.4609C109.891 36.4609 106.813 39.4254 106.813 43.2262C106.813 47.0053 109.891 49.946 113.258 49.946C114.862 49.946 116.129 49.2267 116.792 48.4142H116.891V49.3812C116.891 51.9594 115.518 53.3446 113.303 53.3446C111.498 53.3446 110.377 52.0367 109.915 50.9369L107.345 52.0129C108.086 53.8003 110.047 56 113.303 56C116.769 56 119.693 53.9549 119.693 48.979V36.8711H116.891V37.963ZM113.511 47.2906C111.474 47.2906 109.769 45.5805 109.769 43.2262C109.769 40.8502 111.474 39.1163 113.511 39.1163C115.518 39.1163 117.101 40.8502 117.101 43.2262C117.101 45.5805 115.518 47.2906 113.511 47.2906ZM152.045 29.7193H144.976V49.5358H147.924V42.0274H152.045C155.319 42.0274 158.529 39.6514 158.529 35.8723C158.529 32.0953 155.311 29.7193 152.045 29.7193ZM152.122 39.2709H147.924V32.4758H152.122C154.323 32.4758 155.579 34.3088 155.579 35.8723C155.579 37.4062 154.323 39.2709 152.122 39.2709ZM170.344 36.4232C168.214 36.4232 165.999 37.3665 165.088 39.4572L167.704 40.557C168.268 39.4572 169.303 39.1005 170.397 39.1005C171.926 39.1005 173.477 40.0219 173.501 41.6488V41.8569C172.968 41.5479 171.826 41.09 170.421 41.09C167.604 41.09 164.733 42.6456 164.733 45.5487C164.733 48.2041 167.04 49.9143 169.635 49.9143C171.618 49.9143 172.713 49.0166 173.4 47.9723H173.501V49.5041H176.348V41.9025C176.348 38.389 173.732 36.4232 170.344 36.4232ZM169.988 47.2827C169.024 47.2827 167.68 46.8031 167.68 45.6043C167.68 44.0705 169.356 43.4819 170.806 43.4819C172.104 43.4819 172.713 43.7692 173.501 44.1478C173.27 45.9827 171.695 47.2827 169.988 47.2827ZM186.72 36.8572L183.332 45.4477H183.231L179.728 36.8572H176.549L181.813 48.8621L178.81 55.5422H181.89L190 36.8572H186.72ZM160.149 49.5358H163.105V29.7193H160.149V49.5358Z" fill="black"/>
<path d="M60.6639 23.1762C59.9085 23.1762 59.2119 23.0002 58.5739 22.6482C57.9432 22.2889 57.4409 21.7976 57.0669 21.1742C56.6929 20.5436 56.5059 19.8396 56.5059 19.0622C56.5059 18.2849 56.6929 17.5846 57.0669 16.9612C57.4409 16.3306 57.9432 15.8392 58.5739 15.4872C59.2119 15.1279 59.9085 14.9482 60.6639 14.9482C61.2799 14.9482 61.8409 15.0582 62.3469 15.2782C62.8602 15.4909 63.3002 15.7952 63.6669 16.1912L62.6439 17.1922C62.3799 16.9136 62.0865 16.7046 61.7639 16.5652C61.4485 16.4259 61.0782 16.3562 60.6529 16.3562C60.1689 16.3562 59.7252 16.4699 59.3219 16.6972C58.9185 16.9172 58.5959 17.2362 58.3539 17.6542C58.1192 18.0649 58.0019 18.5342 58.0019 19.0622C58.0019 19.5902 58.1229 20.0632 58.3649 20.4812C58.6069 20.8919 58.9295 21.2109 59.3329 21.4382C59.7435 21.6582 60.1909 21.7682 60.6749 21.7682C61.4082 21.7682 62.0095 21.5519 62.4789 21.1192C62.6255 20.9872 62.7539 20.8186 62.8639 20.6132C62.9739 20.4079 63.0545 20.1842 63.1059 19.9422H60.6309V18.6772H64.4919C64.5432 18.8826 64.5689 19.1136 64.5689 19.3702C64.5689 19.8909 64.4882 20.3749 64.3269 20.8222C64.1729 21.2696 63.9345 21.6619 63.6119 21.9992C63.2599 22.3806 62.8345 22.6739 62.3359 22.8792C61.8372 23.0772 61.2799 23.1762 60.6639 23.1762Z" fill="black"/>
<path d="M66.2098 15.1242H71.2038V16.5322H67.6947V18.3582H70.8518V19.7662H67.6947V21.5922H71.2038V23.0002H66.2098V15.1242Z" fill="black"/>
<path d="M74.5453 16.5322H72.3453V15.1242H78.2303V16.5322H76.0303V23.0002H74.5453V16.5322Z" fill="black"/>
<path d="M82.4352 15.1242H83.9202V23.0002H82.4352V15.1242Z" fill="black"/>
<path d="M87.5265 16.5322H85.3265V15.1242H91.2115V16.5322H89.0115V23.0002H87.5265V16.5322Z" fill="black"/>
<path d="M98.9196 23.1762C98.1496 23.1762 97.4493 22.9966 96.8186 22.6372C96.1953 22.2706 95.704 21.7719 95.3446 21.1412C94.9853 20.5106 94.8056 19.8176 94.8056 19.0622C94.8056 18.3069 94.9853 17.6139 95.3446 16.9832C95.704 16.3526 96.1953 15.8576 96.8186 15.4982C97.4493 15.1316 98.1496 14.9482 98.9196 14.9482C99.6896 14.9482 100.386 15.1316 101.01 15.4982C101.64 15.8576 102.135 16.3526 102.495 16.9832C102.854 17.6139 103.034 18.3069 103.034 19.0622C103.034 19.8176 102.854 20.5106 102.495 21.1412C102.135 21.7719 101.64 22.2706 101.01 22.6372C100.386 22.9966 99.6896 23.1762 98.9196 23.1762ZM98.9196 21.7682C99.4036 21.7682 99.8473 21.6546 100.251 21.4272C100.654 21.1999 100.969 20.8809 101.197 20.4702C101.431 20.0596 101.549 19.5902 101.549 19.0622C101.549 18.5342 101.431 18.0649 101.197 17.6542C100.969 17.2436 100.654 16.9246 100.251 16.6972C99.8473 16.4699 99.4036 16.3562 98.9196 16.3562C98.4356 16.3562 97.992 16.4699 97.5886 16.6972C97.1926 16.9246 96.8773 17.2436 96.6426 17.6542C96.4153 18.0649 96.3016 18.5342 96.3016 19.0622C96.3016 19.5902 96.4153 20.0596 96.6426 20.4702C96.8773 20.8809 97.1926 21.1999 97.5886 21.4272C97.992 21.6546 98.4356 21.7682 98.9196 21.7682Z" fill="black"/>
<path d="M104.66 15.1242H106.387L109.555 20.4042H109.643L109.555 18.8862V15.1242H111.029V23.0002H109.467L106.123 17.4232H106.035L106.123 18.9412V23.0002H104.66V15.1242Z" fill="black"/>
</svg>
