<svg width="212" height="70" viewBox="0 0 212 70" fill="none" xmlns="http://www.w3.org/2000/svg">
<rect width="212" height="70" rx="11.025" fill="white"/>
<path d="M64.2383 17.1357V27H67.7998C70.7393 27 72.4414 25.1885 72.4414 22.0371C72.4414 18.9336 70.7256 17.1357 67.7998 17.1357H64.2383ZM65.7695 18.5303H67.6289C69.6729 18.5303 70.8828 19.8291 70.8828 22.0576C70.8828 24.3203 69.6934 25.6055 67.6289 25.6055H65.7695V18.5303Z" fill="black"/>
<path d="M77.4795 27.1436C79.6533 27.1436 80.9863 25.6875 80.9863 23.2744C80.9863 20.875 79.6465 19.4121 77.4795 19.4121C75.3057 19.4121 73.9658 20.875 73.9658 23.2744C73.9658 25.6875 75.2988 27.1436 77.4795 27.1436ZM77.4795 25.8379C76.2012 25.8379 75.4834 24.9014 75.4834 23.2744C75.4834 21.6611 76.2012 20.7178 77.4795 20.7178C78.751 20.7178 79.4756 21.6611 79.4756 23.2744C79.4756 24.8945 78.751 25.8379 77.4795 25.8379Z" fill="black"/>
<path d="M92.1631 19.5557H90.6934L89.3672 25.2363H89.251L87.7197 19.5557H86.3115L84.7803 25.2363H84.6709L83.3379 19.5557H81.8477L83.8984 27H85.4092L86.9404 21.5176H87.0566L88.5947 27H90.1191L92.1631 19.5557Z" fill="black"/>
<path d="M93.6807 27H95.1504V22.6455C95.1504 21.4834 95.8408 20.7588 96.9277 20.7588C98.0146 20.7588 98.5342 21.3535 98.5342 22.5498V27H100.004V22.1807C100.004 20.4102 99.0879 19.4121 97.4268 19.4121C96.3057 19.4121 95.5674 19.9111 95.2051 20.7383H95.0957V19.5557H93.6807V27Z" fill="black"/>
<path d="M102.144 27H103.613V16.6504H102.144V27Z" fill="black"/>
<path d="M108.966 27.1436C111.14 27.1436 112.473 25.6875 112.473 23.2744C112.473 20.875 111.133 19.4121 108.966 19.4121C106.792 19.4121 105.452 20.875 105.452 23.2744C105.452 25.6875 106.785 27.1436 108.966 27.1436ZM108.966 25.8379C107.688 25.8379 106.97 24.9014 106.97 23.2744C106.97 21.6611 107.688 20.7178 108.966 20.7178C110.237 20.7178 110.962 21.6611 110.962 23.2744C110.962 24.8945 110.237 25.8379 108.966 25.8379Z" fill="black"/>
<path d="M116.677 25.8857C115.877 25.8857 115.296 25.4961 115.296 24.8262C115.296 24.1699 115.761 23.8213 116.786 23.7529L118.604 23.6367V24.2588C118.604 25.1816 117.784 25.8857 116.677 25.8857ZM116.301 27.123C117.278 27.123 118.092 26.6992 118.536 25.9541H118.652V27H120.067V21.9141C120.067 20.3418 119.015 19.4121 117.148 19.4121C115.46 19.4121 114.257 20.2324 114.106 21.5107H115.528C115.692 20.9844 116.26 20.6836 117.08 20.6836C118.085 20.6836 118.604 21.1279 118.604 21.9141V22.5566L116.588 22.6729C114.817 22.7822 113.819 23.5547 113.819 24.8945C113.819 26.2549 114.865 27.123 116.301 27.123Z" fill="black"/>
<path d="M124.88 27.123C125.905 27.123 126.773 26.6377 127.218 25.8242H127.334V27H128.742V16.6504H127.272V20.7383H127.163C126.76 19.918 125.898 19.4326 124.88 19.4326C123 19.4326 121.79 20.9229 121.79 23.2744C121.79 25.6328 122.986 27.123 124.88 27.123ZM125.297 20.752C126.527 20.752 127.3 21.7295 127.3 23.2812C127.3 24.8398 126.534 25.8037 125.297 25.8037C124.053 25.8037 123.308 24.8535 123.308 23.2744C123.308 21.709 124.06 20.752 125.297 20.752Z" fill="black"/>
<path d="M137.923 27.1436C140.097 27.1436 141.43 25.6875 141.43 23.2744C141.43 20.875 140.09 19.4121 137.923 19.4121C135.749 19.4121 134.409 20.875 134.409 23.2744C134.409 25.6875 135.742 27.1436 137.923 27.1436ZM137.923 25.8379C136.645 25.8379 135.927 24.9014 135.927 23.2744C135.927 21.6611 136.645 20.7178 137.923 20.7178C139.194 20.7178 139.919 21.6611 139.919 23.2744C139.919 24.8945 139.194 25.8379 137.923 25.8379Z" fill="black"/>
<path d="M143.2 27H144.67V22.6455C144.67 21.4834 145.36 20.7588 146.447 20.7588C147.534 20.7588 148.054 21.3535 148.054 22.5498V27H149.523V22.1807C149.523 20.4102 148.607 19.4121 146.946 19.4121C145.825 19.4121 145.087 19.9111 144.725 20.7383H144.615V19.5557H143.2V27Z" fill="black"/>
<path d="M155.942 17.7031V19.5898H154.76V20.8271H155.942V25.0312C155.942 26.4668 156.592 27.041 158.226 27.041C158.513 27.041 158.786 27.0068 159.025 26.9658V25.7422C158.82 25.7627 158.69 25.7764 158.465 25.7764C157.733 25.7764 157.412 25.4346 157.412 24.6553V20.8271H159.025V19.5898H157.412V17.7031H155.942Z" fill="black"/>
<path d="M160.823 27H162.293V22.6523C162.293 21.5244 162.963 20.7656 164.166 20.7656C165.205 20.7656 165.759 21.3672 165.759 22.5566V27H167.229V22.1943C167.229 20.4238 166.251 19.4189 164.665 19.4189C163.544 19.4189 162.758 19.918 162.396 20.752H162.279V16.6504H160.823V27Z" fill="black"/>
<path d="M172.355 20.6631C173.442 20.6631 174.153 21.4219 174.188 22.5908H170.428C170.51 21.4287 171.269 20.6631 172.355 20.6631ZM174.181 24.9902C173.907 25.5713 173.299 25.8926 172.41 25.8926C171.234 25.8926 170.476 25.0654 170.428 23.7598V23.6777H175.685V23.165C175.685 20.8271 174.434 19.4121 172.362 19.4121C170.264 19.4121 168.931 20.9229 168.931 23.3018C168.931 25.6807 170.236 27.1436 172.369 27.1436C174.071 27.1436 175.261 26.3232 175.596 24.9902H174.181Z" fill="black"/>
<path d="M76.8528 55.0002H80.1335L72.9214 35.0251H69.5715L62.3594 55.0002H65.5847L67.412 49.6015H75.0255L76.8528 55.0002ZM71.1772 38.3474H71.2603L74.2365 47.1098H68.201L71.1772 38.3474Z" fill="black"/>
<path d="M90.3489 39.8147C88.2586 39.8147 86.4037 40.8391 85.5593 42.4587H85.4901V39.967H82.597V59.9836H85.6008V52.5362H85.6562C86.556 54.1973 88.2586 55.1525 90.4181 55.1525C94.1972 55.1525 96.7027 52.1348 96.7027 47.4836C96.7027 42.8186 94.1834 39.8147 90.3489 39.8147ZM89.5876 52.6054C87.1928 52.6054 85.587 50.5567 85.5732 47.4836C85.587 44.4243 87.2066 42.3618 89.5876 42.3618C92.0239 42.3618 93.6296 44.3828 93.6296 47.4836C93.6296 50.5982 92.0239 52.6054 89.5876 52.6054Z" fill="black"/>
<path d="M107.416 39.8147C105.326 39.8147 103.471 40.8391 102.627 42.4587H102.558V39.967H99.6645V59.9836H102.668V52.5362H102.724C103.624 54.1973 105.326 55.1525 107.486 55.1525C111.265 55.1525 113.77 52.1348 113.77 47.4836C113.77 42.8186 111.251 39.8147 107.416 39.8147ZM106.655 52.6054C104.26 52.6054 102.655 50.5567 102.641 47.4836C102.655 44.4243 104.274 42.3618 106.655 42.3618C109.091 42.3618 110.697 44.3828 110.697 47.4836C110.697 50.5982 109.091 52.6054 106.655 52.6054Z" fill="black"/>
<path d="M123.252 49.4354C123.445 53.0484 126.435 55.3324 130.865 55.3324C135.599 55.3324 138.575 52.993 138.575 49.2555C138.575 46.3346 136.873 44.6874 132.775 43.7184L130.574 43.1785C128 42.5417 126.948 41.7112 126.948 40.2992C126.948 38.5273 128.595 37.3092 131.003 37.3092C133.412 37.3092 135.059 38.5135 135.239 40.5068H138.257C138.16 37.06 135.267 34.6929 131.045 34.6929C126.781 34.6929 123.778 37.06 123.778 40.5068C123.778 43.2892 125.48 45.0057 129.149 45.8917L131.737 46.5146C134.326 47.1514 135.419 48.0788 135.419 49.6292C135.419 51.4149 133.606 52.7162 131.087 52.7162C128.456 52.7162 126.532 51.4149 126.311 49.4354H123.252Z" fill="black"/>
<path d="M142.52 36.5893V39.967H140.444V42.3341H142.52V51.0412C142.52 53.9482 143.683 55.0971 146.687 55.0971C147.337 55.0971 148.043 55.0279 148.376 54.9448V52.5777C148.182 52.6054 147.67 52.6469 147.351 52.6469C146.092 52.6469 145.51 52.0379 145.51 50.7366V42.3341H148.389V39.967H145.51V36.5893H142.52Z" fill="black"/>
<path d="M157.567 55.1802C161.913 55.1802 164.668 52.2178 164.668 47.4836C164.668 42.7494 161.899 39.7732 157.567 39.7732C153.234 39.7732 150.451 42.7632 150.451 47.4836C150.451 52.2178 153.22 55.1802 157.567 55.1802ZM157.567 52.6885C155.02 52.6885 153.497 50.7643 153.497 47.4836C153.497 44.2167 155.02 42.2649 157.567 42.2649C160.114 42.2649 161.623 44.2029 161.623 47.4836C161.623 50.7643 160.114 52.6885 157.567 52.6885Z" fill="black"/>
<path d="M167.644 55.0002H170.648V46.0301C170.648 43.9122 171.893 42.5417 173.873 42.5417C174.468 42.5417 174.994 42.6248 175.243 42.7217V39.9116C175.008 39.8562 174.634 39.8147 174.191 39.8147C172.419 39.8147 171.035 40.8252 170.564 42.5002H170.509V39.967H167.644V55.0002Z" fill="black"/>
<path d="M183.355 42.2233C185.542 42.2233 187.023 43.7737 187.092 46.1132H179.465C179.631 43.8014 181.195 42.2233 183.355 42.2233ZM187.078 50.5982C186.663 51.9133 185.293 52.7438 183.548 52.7438C181.084 52.7438 179.451 51.0273 179.451 48.4249V48.2449H190.096V47.1929C190.096 42.6386 187.494 39.7732 183.368 39.7732C179.16 39.7732 176.419 42.8324 176.419 47.539C176.419 52.2455 179.133 55.1802 183.493 55.1802C186.871 55.1802 189.515 53.2976 189.944 50.5982H187.078Z" fill="black"/>
<path d="M44.9264 35.6338C44.8813 30.732 49.0252 28.3473 49.2147 28.2363C46.8679 24.8858 43.2303 24.428 41.952 24.3915C38.8968 24.0767 35.9334 26.1816 34.3771 26.1816C32.7897 26.1816 30.3931 24.4219 27.8101 24.4736C24.4863 24.5238 21.3768 26.4082 19.6714 29.3343C16.1518 35.3007 18.7767 44.0686 22.1487 48.8913C23.8355 51.2532 25.8065 53.8904 28.3864 53.7977C30.9103 53.6958 31.8531 52.222 34.8989 52.222C37.9168 52.222 38.8021 53.7977 41.4332 53.7384C44.142 53.6958 45.8474 51.3658 47.4752 48.9826C49.4244 46.2754 50.2072 43.6093 50.2383 43.4724C50.1746 43.4511 44.9776 41.509 44.9264 35.6338Z" fill="black"/>
<path d="M39.956 21.2189C41.3135 19.5566 42.2423 17.295 41.9845 15C40.0197 15.0852 37.5625 16.3308 36.1476 17.9566C34.8957 19.3893 33.7774 21.7375 34.0663 23.9458C36.2734 24.107 38.5395 22.8553 39.956 21.2189Z" fill="black"/>
</svg>
