<svg width="100%" viewBox="0 0 40 40" fill="#3392ff" xmlns="http://www.w3.org/2000/svg">
<path d="M20.0705 22.2923C21.324 22.2923 22.3402 21.2761 22.3402 20.0226C22.3402 18.7691 21.324 17.7529 20.0705 17.7529C18.817 17.7529 17.8008 18.7691 17.8008 20.0226C17.8008 21.2761 18.817 22.2923 20.0705 22.2923Z" fill="#3392ff"></path>
<path d="M19.9993 3C15.4846 3 11.1548 4.79346 7.9624 7.98583C4.77002 11.1782 2.97656 15.508 2.97656 20.0227C2.97656 24.5374 4.77002 28.8672 7.9624 32.0596C11.1548 35.2519 15.4846 37.0454 19.9993 37.0454C24.514 37.0454 28.8438 35.2519 32.0361 32.0596C35.2285 28.8672 37.022 24.5374 37.022 20.0227C37.022 15.508 35.2285 11.1782 32.0361 7.98583C28.8438 4.79346 24.514 3 19.9993 3ZM31.0754 10.6035L25.5146 18.5474C25.9139 19.9724 25.7335 21.4975 25.0128 22.7901C24.2922 24.0826 23.0896 25.0378 21.6675 25.4473C21.1478 25.5982 20.6085 25.6709 20.0674 25.6629C18.5701 25.6842 17.1252 25.1129 16.0474 24.0734C14.9697 23.0339 14.3465 21.6105 14.3137 20.1135C14.3017 19.3683 14.4366 18.6281 14.7107 17.935C14.9848 17.242 15.3927 16.6097 15.9112 16.0744C16.4297 15.539 17.0486 15.1111 17.7325 14.8149C18.4164 14.5188 19.1519 14.3603 19.8971 14.3485C20.4491 14.346 20.9989 14.4185 21.5313 14.5641L29.4752 9.00334C29.5885 8.90646 29.7197 8.83284 29.8614 8.78669C30.0031 8.74053 30.1526 8.72274 30.3012 8.73433C30.4497 8.74593 30.5946 8.78667 30.7274 8.85425C30.8603 8.92182 30.9785 9.0149 31.0754 9.12817C31.2512 9.33373 31.3478 9.59533 31.3478 9.86582C31.3478 10.1363 31.2512 10.3979 31.0754 10.6035Z" fill="#3392ff"></path>
</svg>