<svg width="100%" viewBox="0 0 40 40" fill="#3392ff" xmlns="http://www.w3.org/2000/svg">
<path fill-rule="evenodd" clip-rule="evenodd" d="M20 3C10.6112 3 3 10.6112 3 20C3 29.3888 10.6112 37 20 37C29.3888 37 37 29.3888 37 20C37 10.6112 29.3888 3 20 3ZM33.0711 18.1111H28.2167C28.1115 14.706 27.3549 11.3526 25.9878 8.23218C29.8124 10.1803 32.4534 13.8636 33.0711 18.1111ZM19.9997 33.2223H20.8497C22.5686 32.1079 24.552 27.9712 24.892 21.889H15.1075C15.372 28.009 17.4309 32.1456 19.1497 33.2223H19.9997ZM15.1831 18.1109C15.5231 12.0287 17.5064 7.89203 19.2253 6.77759H19.9998H20.8498C22.5687 7.85425 24.6276 11.9909 24.892 18.1109H15.1831ZM11.7836 18.1111C11.8889 14.706 12.6455 11.3526 14.0125 8.23218C10.188 10.1803 7.54694 13.8636 6.9292 18.1111H11.7836ZM6.9292 21.8889H11.7836C11.8889 25.294 12.6455 28.6474 14.0125 31.7678C10.188 29.8197 7.54694 26.1364 6.9292 21.8889ZM28.2167 21.8889C28.1115 25.294 27.3549 28.6474 25.9878 31.7678C29.8124 29.8197 32.4534 26.1364 33.0711 21.8889H28.2167Z" fill="#3392ff"></path>
</svg>